# xmcd
#
# Track frame offsets:
#	150
#	10987
#	29785
#	50835
#	63120
#	82317
#	92815
#	118047
#	130282
#	145367
#	185902
#	192915
#	205537
#	222525
#	256155
#
# Disc length: 4212 seconds
#
# Revision: 10
# Processed by: cddbd v1.5.2PL0 Copyright (c) Steve Scherf et al.
# Submitted via: audiograbber 1.83.01
#
DISCID=ed10720f
DTITLE=Stevie Ray Vaughan And Double Trouble - In Step 
DYEAR=1989
DGENRE=Blues
TTITLE0=The House Is Rockin'
TTITLE1=Crossfire
TTITLE2=Tightrope
TTITLE3=Let Me Love You Baby
TTITLE4=Leave My Girl Alone
TTITLE5=Travis Walk
TTITLE6=Wall Of Denial
TTITLE7=Scratch-N-Sniff
TTITLE8=Love Me Darlin'
TTITLE9=Riviera Paradise
TTITLE10=SRV Speaks
TTITLE11=The House Is Rockin' (live)
TTITLE12=Let Me Love You Baby (live )
TTITLE13=Texas Flood (live )
TTITLE14=Life Without You (live)
EXTD="In Step" won Stevie Ray his second Grammy Award for Best Contemporary Blu
EXTD=es\n
EXTT0=
EXTT1=
EXTT2=
EXTT3=
EXTT4=
EXTT5=
EXTT6=
EXTT7=
EXTT8=
EXTT9=
EXTT10=
EXTT11=
EXTT12=
EXTT13=
EXTT14=
PLAYORDER=
